<?xml version="1.0" encoding="UTF-8"?>
<!DOCTYPE svg PUBLIC "-//W3C//DTD SVG 1.1//EN" "http://www.w3.org/Graphics/SVG/1.1/DTD/svg11.dtd">
<svg xmlns="http://www.w3.org/2000/svg" version="1.1" width="1024px" height="1024px" style="shape-rendering:geometricPrecision; text-rendering:geometricPrecision; image-rendering:optimizeQuality; fill-rule:evenodd; clip-rule:evenodd" xmlns:xlink="http://www.w3.org/1999/xlink">
<g><path style="opacity:0.004" fill="#628f71" d="M 433.5,178.5 C 434.833,179.167 434.833,179.167 433.5,178.5 Z"/></g>
<g><path style="opacity:0.004" fill="#628e74" d="M 593.5,178.5 C 594.833,179.167 594.833,179.167 593.5,178.5 Z"/></g>
<g><path style="opacity:0.986" fill="#547c63" d="M 604.5,181.5 C 595.676,182.33 586.676,182.83 577.5,183C 574.471,183.732 571.471,184.565 568.5,185.5C 567.584,185.457 566.917,185.124 566.5,184.5C 578.888,180.528 591.555,179.528 604.5,181.5 Z"/></g>
<g><path style="opacity:0.012" fill="#648f76" d="M 402.5,184.5 C 401.448,184.649 400.448,184.483 399.5,184C 400.749,183.26 401.749,183.427 402.5,184.5 Z"/></g>
<g><path style="opacity:0.988" fill="#517860" d="M 496.5,236.5 C 496.167,236.5 495.833,236.5 495.5,236.5C 495.167,236.5 494.833,236.5 494.5,236.5C 494.5,235.167 494.5,233.833 494.5,232.5C 488.222,205.056 471.222,188.556 443.5,183C 432.229,181.968 421.063,182.468 410,184.5C 408.93,184.472 408.097,184.139 407.5,183.5C 432.285,176.574 454.952,180.741 475.5,196C 487.67,206.84 494.67,220.34 496.5,236.5 Z"/></g>
<g><path style="opacity:0.004" fill="#628f75" d="M 459.5,184.5 C 460.833,185.167 460.833,185.167 459.5,184.5 Z"/></g>
<g><path style="opacity:0.004" fill="#618d73" d="M 549.5,192.5 C 548.833,191.167 548.833,191.167 549.5,192.5 Z"/></g>
<g><path style="opacity:0.006" fill="#628b74" d="M 637.5,192.5 C 637.897,191.475 638.563,191.308 639.5,192C 638.906,192.464 638.239,192.631 637.5,192.5 Z"/></g>
<g><path style="opacity:0.004" fill="#639072" d="M 641.5,194.5 C 642.833,195.167 642.833,195.167 641.5,194.5 Z"/></g>
<g><path style="opacity:0.965" fill="#4f755d" d="M 564.5,185.5 C 555.004,190.735 546.171,197.735 538,206.5C 533.676,212.818 530.176,219.484 527.5,226.5C 528.666,220.509 530.666,214.842 533.5,209.5C 538.129,203.203 543.462,197.537 549.5,192.5C 554.115,189.36 559.115,187.026 564.5,185.5 Z"/></g>
<g><path style="opacity:0.004" fill="#638d72" d="M 371.5,200.5 C 370.833,199.167 370.833,199.167 371.5,200.5 Z"/></g>
<g><path style="opacity:0.965" fill="#4f745c" d="M 402.5,184.5 C 403.5,184.5 404.5,184.5 405.5,184.5C 364.622,200.262 339.789,230.262 331,274.5C 327.673,277.282 323.839,279.115 319.5,280C 317.613,280.78 315.946,280.613 314.5,279.5C 318.375,278.03 322.375,276.863 326.5,276C 327.931,275.535 329.097,274.701 330,273.5C 332.014,265.11 334.181,256.777 336.5,248.5C 339.403,243.023 342.07,237.357 344.5,231.5C 346.25,230.341 347.25,228.674 347.5,226.5C 349.9,224.704 351.567,222.37 352.5,219.5C 358.5,212.833 364.833,206.5 371.5,200.5C 381.151,193.841 391.484,188.508 402.5,184.5 Z"/></g>
<g><path style="opacity:0.012" fill="#628e73" d="M 658.5,207.5 C 659.833,208.167 659.833,208.167 658.5,207.5 Z"/></g>
<g><path style="opacity:0.004" fill="#659174" d="M 533.5,209.5 C 532.833,208.167 532.833,208.167 533.5,209.5 Z"/></g>
<g><path style="opacity:0.008" fill="#689479" d="M 527.5,217.5 C 528.833,218.167 528.833,218.167 527.5,217.5 Z"/></g>
<g><path style="opacity:0.004" fill="#628c72" d="M 352.5,219.5 C 351.833,218.167 351.833,218.167 352.5,219.5 Z"/></g>
<g><path style="opacity:0.004" fill="#5e8c72" d="M 347.5,226.5 C 346.833,225.167 346.833,225.167 347.5,226.5 Z"/></g>
<g><path style="opacity:0.004" fill="#5f8a70" d="M 344.5,231.5 C 343.833,230.167 343.833,230.167 344.5,231.5 Z"/></g>
<g><path style="opacity:0.004" fill="#69947a" d="M 497.5,232.5 C 498.833,233.167 498.833,233.167 497.5,232.5 Z"/></g>
<g><path style="opacity:0.004" fill="#659379" d="M 523.5,232.5 C 524.833,233.167 524.833,233.167 523.5,232.5 Z"/></g>
<g><path style="opacity:0.994" fill="#537c62" d="M 526.5,228.5 C 527.833,232.167 527.833,235.833 526.5,239.5C 526.784,237.585 526.451,235.919 525.5,234.5C 525.517,232.435 525.85,230.435 526.5,228.5 Z"/></g>
<g><path style="opacity:0.008" fill="#628d74" d="M 683.5,242.5 C 684.833,243.167 684.833,243.167 683.5,242.5 Z"/></g>
<g><path style="opacity:0.008" fill="#6a957a" d="M 522.5,244.5 C 523.833,245.167 523.833,245.167 522.5,244.5 Z"/></g>
<g><path style="opacity:0.008" fill="#628d74" d="M 336.5,248.5 C 335.475,248.103 335.308,247.437 336,246.5C 336.464,247.094 336.631,247.761 336.5,248.5 Z"/></g>
<g><path style="opacity:0.008" fill="#638f73" d="M 686.5,249.5 C 687.833,250.167 687.833,250.167 686.5,249.5 Z"/></g>
<g><path style="opacity:0.004" fill="#68937b" d="M 522.5,256.5 C 523.525,256.897 523.692,257.563 523,258.5C 522.536,257.906 522.369,257.239 522.5,256.5 Z"/></g>
<g><path style="opacity:0.008" fill="#69947b" d="M 522.5,259.5 C 523.573,260.251 523.74,261.251 523,262.5C 522.517,261.552 522.351,260.552 522.5,259.5 Z"/></g>
<g><path style="opacity:0.999" fill="#608f75" d="M 494.5,232.5 C 493.83,408.516 493.164,584.683 492.5,761C 492.528,762.07 492.861,762.903 493.5,763.5C 484.196,797.97 462.196,819.47 427.5,828C 417.991,828.17 408.658,828.67 399.5,829.5C 398.5,829.5 397.5,829.5 396.5,829.5C 396.5,829.167 396.5,828.833 396.5,828.5C 380.401,823.932 365.567,814.932 352,801.5C 347.611,796.111 343.611,790.444 340,784.5C 339.31,783.262 338.81,783.262 338.5,784.5C 336.007,784.869 335.34,784.203 336.5,782.5C 337.738,782.19 337.738,781.69 336.5,781C 303.141,773.61 277.641,755.443 260,726.5C 242.967,697.018 239.134,665.851 248.5,633C 248.63,631.11 248.296,630.277 247.5,630.5C 246.662,630.158 246.328,629.492 246.5,628.5C 246.938,628.565 247.272,628.399 247.5,628C 221.293,608.115 204.793,581.948 198,549.5C 197.517,550.448 197.351,551.448 197.5,552.5C 196.566,551.432 196.232,550.099 196.5,548.5C 197.129,543.682 197.129,538.682 196.5,533.5C 195.2,481.091 216.7,441.091 261,413.5C 261.667,411.5 261.667,409.5 261,407.5C 244.194,364.555 252.694,327.388 286.5,296C 295.242,289.842 303.909,284.675 312.5,280.5C 312.842,279.662 313.508,279.328 314.5,279.5C 315.946,280.613 317.613,280.78 319.5,280C 323.839,279.115 327.673,277.282 331,274.5C 339.789,230.262 364.622,200.262 405.5,184.5C 405.842,183.662 406.508,183.328 407.5,183.5C 408.097,184.139 408.93,184.472 410,184.5C 421.063,182.468 432.229,181.968 443.5,183C 471.222,188.556 488.222,205.056 494.5,232.5 Z"/></g>
<g><path style="opacity:0.004" fill="#68967a" d="M 522.5,268.5 C 523.833,269.167 523.833,269.167 522.5,268.5 Z"/></g>
<g><path style="opacity:0.004" fill="#679579" d="M 522.5,272.5 C 523.833,273.167 523.833,273.167 522.5,272.5 Z"/></g>
<g><path style="opacity:0.004" fill="#67927a" d="M 693.5,272.5 C 694.833,273.167 694.833,273.167 693.5,272.5 Z"/></g>
<g><path style="opacity:0.999" fill="#608f74" d="M 604.5,181.5 C 605.791,181.263 606.791,181.596 607.5,182.5C 635.828,189.976 658.661,206.976 676,233.5C 682.983,246.449 687.983,260.115 691,274.5C 691.833,275.333 692.667,276.167 693.5,277C 746.18,291.354 771.68,325.854 770,380.5C 768.509,389.306 766.009,397.806 762.5,406C 762.57,406.765 762.903,407.265 763.5,407.5C 763.672,408.492 763.338,409.158 762.5,409.5C 761.133,410.355 761.133,412.022 762.5,414.5C 800.386,437.898 821.886,471.898 827,516.5C 827.49,515.207 827.657,513.873 827.5,512.5C 828.468,514.607 828.802,516.941 828.5,519.5C 828.191,561.947 811.858,596.78 779.5,624C 779.728,624.399 780.062,624.565 780.5,624.5C 778.597,625.947 776.93,627.614 775.5,629.5C 775.565,629.062 775.399,628.728 775,628.5C 774.056,629.263 773.556,630.263 773.5,631.5C 776.219,638.607 778.052,645.94 779,653.5C 779.483,652.552 779.649,651.552 779.5,650.5C 780.451,651.919 780.784,653.585 780.5,655.5C 780.873,710.936 756.206,750.769 706.5,775C 700.589,776.978 694.589,778.645 688.5,780C 689.094,780.464 689.761,780.631 690.5,780.5C 688.071,781.551 685.738,782.884 683.5,784.5C 683.19,783.262 682.69,783.262 682,784.5C 679.916,788.336 677.583,792.003 675,795.5C 674.308,796.437 674.475,797.103 675.5,797.5C 675.167,798.5 674.5,799.167 673.5,799.5C 669.03,802.425 664.697,806.258 660.5,811C 647.635,821.291 632.968,827.291 616.5,829C 618.134,829.494 619.801,829.66 621.5,829.5C 619.735,830.461 617.735,830.795 615.5,830.5C 610.178,829.593 604.678,828.926 599,828.5C 597.293,828.508 595.793,828.842 594.5,829.5C 593.209,829.737 592.209,829.404 591.5,828.5C 570.278,822.586 552.778,809.586 539,789.5C 532.601,778.303 528.601,766.303 527,753.5C 526.5,582.167 526.333,410.834 526.5,239.5C 527.833,235.833 527.833,232.167 526.5,228.5C 526.328,227.508 526.662,226.842 527.5,226.5C 530.176,219.484 533.676,212.818 538,206.5C 546.171,197.735 555.004,190.735 564.5,185.5C 564.842,184.662 565.508,184.328 566.5,184.5C 566.917,185.124 567.584,185.457 568.5,185.5C 571.471,184.565 574.471,183.732 577.5,183C 586.676,182.83 595.676,182.33 604.5,181.5 Z"/></g>
<g><path style="opacity:0.004" fill="#69947a" d="M 522.5,276.5 C 523.525,276.897 523.692,277.563 523,278.5C 522.536,277.906 522.369,277.239 522.5,276.5 Z"/></g>
<g><path style="opacity:0.004" fill="#68967a" d="M 522.5,284.5 C 523.833,285.167 523.833,285.167 522.5,284.5 Z"/></g>
<g><path style="opacity:0.831" fill="#4f755c" d="M 607.5,182.5 C 612.601,183.143 617.601,184.309 622.5,186C 627.521,188.179 632.521,190.346 637.5,192.5C 638.436,193.974 639.77,194.974 641.5,195.5C 647.427,199.419 653.094,203.752 658.5,208.5C 676.548,226.923 688.048,248.923 693,274.5C 707.001,278.33 720.167,283.997 732.5,291.5C 765.559,317.832 777.725,351.832 769,393.5C 767.428,398.304 765.595,402.971 763.5,407.5C 762.903,407.265 762.57,406.765 762.5,406C 766.009,397.806 768.509,389.306 770,380.5C 771.68,325.854 746.18,291.354 693.5,277C 692.667,276.167 691.833,275.333 691,274.5C 687.983,260.115 682.983,246.449 676,233.5C 658.661,206.976 635.828,189.976 607.5,182.5 Z"/></g>
<g><path style="opacity:0.004" fill="#68957a" d="M 522.5,288.5 C 523.833,289.167 523.833,289.167 522.5,288.5 Z"/></g>
<g><path style="opacity:0.004" fill="#638e71" d="M 732.5,290.5 C 733.833,291.167 733.833,291.167 732.5,290.5 Z"/></g>
<g><path style="opacity:0.008" fill="#679579" d="M 522.5,292.5 C 523.833,293.167 523.833,293.167 522.5,292.5 Z"/></g>
<g><path style="opacity:0.008" fill="#618b70" d="M 749.5,305.5 C 750.833,306.167 750.833,306.167 749.5,305.5 Z"/></g>
<g><path style="opacity:0.004" fill="#67947a" d="M 522.5,308.5 C 523.833,309.167 523.833,309.167 522.5,308.5 Z"/></g>
<g><path style="opacity:0.004" fill="#679477" d="M 522.5,312.5 C 523.833,313.167 523.833,313.167 522.5,312.5 Z"/></g>
<g><path style="opacity:0.004" fill="#699479" d="M 522.5,316.5 C 523.833,317.167 523.833,317.167 522.5,316.5 Z"/></g>
<g><path style="opacity:0.906" fill="#456e57" d="M 495.5,236.5 C 495.833,236.5 496.167,236.5 496.5,236.5C 496.795,330.266 496.795,423.599 496.5,516.5C 495.501,423.335 495.167,330.001 495.5,236.5 Z"/></g>
<g><path style="opacity:0.004" fill="#6a957b" d="M 522.5,324.5 C 523.833,325.167 523.833,325.167 522.5,324.5 Z"/></g>
<g><path style="opacity:0.004" fill="#699479" d="M 522.5,344.5 C 523.833,345.167 523.833,345.167 522.5,344.5 Z"/></g>
<g><path style="opacity:0.004" fill="#68947a" d="M 522.5,348.5 C 523.525,348.897 523.692,349.563 523,350.5C 522.536,349.906 522.369,349.239 522.5,348.5 Z"/></g>
<g><path style="opacity:0.008" fill="#68957a" d="M 522.5,364.5 C 523.833,365.167 523.833,365.167 522.5,364.5 Z"/></g>
<g><path style="opacity:0.004" fill="#68957a" d="M 522.5,372.5 C 523.833,373.167 523.833,373.167 522.5,372.5 Z"/></g>
<g><path style="opacity:0.004" fill="#628e73" d="M 248.5,373.5 C 249.833,374.167 249.833,374.167 248.5,373.5 Z"/></g>
<g><path style="opacity:0.004" fill="#638e73" d="M 248.5,375.5 C 249.833,376.167 249.833,376.167 248.5,375.5 Z"/></g>
<g><path style="opacity:0.004" fill="#679579" d="M 522.5,380.5 C 523.833,381.167 523.833,381.167 522.5,380.5 Z"/></g>
<g><path style="opacity:0.008" fill="#629075" d="M 249.5,381.5 C 250.833,382.167 250.833,382.167 249.5,381.5 Z"/></g>
<g><path style="opacity:0.004" fill="#638e75" d="M 250.5,388.5 C 251.833,389.167 251.833,389.167 250.5,388.5 Z"/></g>
<g><path style="opacity:0.004" fill="#689579" d="M 522.5,388.5 C 523.833,389.167 523.833,389.167 522.5,388.5 Z"/></g>
<g><path style="opacity:0.008" fill="#608d72" d="M 252.5,390.5 C 251.833,391.167 251.833,391.167 252.5,390.5 Z"/></g>
<g><path style="opacity:0.004" fill="#689679" d="M 522.5,396.5 C 523.833,397.167 523.833,397.167 522.5,396.5 Z"/></g>
<g><path style="opacity:0.004" fill="#68967b" d="M 522.5,400.5 C 523.833,401.167 523.833,401.167 522.5,400.5 Z"/></g>
<g><path style="opacity:0.004" fill="#648f75" d="M 256.5,405.5 C 257.833,406.167 257.833,406.167 256.5,405.5 Z"/></g>
<g><path style="opacity:0.008" fill="#679479" d="M 257.5,410.5 C 258.833,411.167 258.833,411.167 257.5,410.5 Z"/></g>
<g><path style="opacity:0.004" fill="#689679" d="M 522.5,412.5 C 523.833,413.167 523.833,413.167 522.5,412.5 Z"/></g>
<g><path style="opacity:0.004" fill="#68957a" d="M 522.5,416.5 C 523.833,417.167 523.833,417.167 522.5,416.5 Z"/></g>
<g><path style="opacity:0.008" fill="#67967a" d="M 522.5,420.5 C 523.833,421.167 523.833,421.167 522.5,420.5 Z"/></g>
<g><path style="opacity:0.004" fill="#68977a" d="M 522.5,428.5 C 523.833,429.167 523.833,429.167 522.5,428.5 Z"/></g>
<g><path style="opacity:0.012" fill="#629075" d="M 789.5,431.5 C 790.833,432.167 790.833,432.167 789.5,431.5 Z"/></g>
<g><path style="opacity:0.004" fill="#638e71" d="M 793.5,434.5 C 794.833,435.167 794.833,435.167 793.5,434.5 Z"/></g>
<g><path style="opacity:0.004" fill="#68947b" d="M 522.5,436.5 C 523.833,437.167 523.833,437.167 522.5,436.5 Z"/></g>
<g><path style="opacity:0.004" fill="#67957a" d="M 522.5,448.5 C 523.833,449.167 523.833,449.167 522.5,448.5 Z"/></g>
<g><path style="opacity:0.004" fill="#629075" d="M 216.5,451.5 C 215.833,450.167 215.833,450.167 216.5,451.5 Z"/></g>
<g><path style="opacity:0.996" fill="#4e735b" d="M 312.5,280.5 C 303.909,284.675 295.242,289.842 286.5,296C 252.694,327.388 244.194,364.555 261,407.5C 261.667,409.5 261.667,411.5 261,413.5C 216.7,441.091 195.2,481.091 196.5,533.5C 195.549,534.919 195.216,536.585 195.5,538.5C 192.266,507.099 199.266,478.099 216.5,451.5C 227.953,436.092 241.953,423.426 258.5,413.5C 259.52,411.568 259.687,409.568 259,407.5C 256.507,401.84 254.341,396.174 252.5,390.5C 245.596,342.136 262.929,306.303 304.5,283C 307.096,281.864 309.763,281.031 312.5,280.5 Z"/></g>
<g><path style="opacity:0.004" fill="#679579" d="M 522.5,452.5 C 523.833,453.167 523.833,453.167 522.5,452.5 Z"/></g>
<g><path style="opacity:0.004" fill="#628f73" d="M 812.5,461.5 C 813.833,462.167 813.833,462.167 812.5,461.5 Z"/></g>
<g><path style="opacity:0.004" fill="#659176" d="M 207.5,463.5 C 208.833,464.167 208.833,464.167 207.5,463.5 Z"/></g>
<g><path style="opacity:0.004" fill="#68967b" d="M 522.5,468.5 C 523.833,469.167 523.833,469.167 522.5,468.5 Z"/></g>
<g><path style="opacity:0.906" fill="#4c715a" d="M 762.5,409.5 C 762.771,411.312 763.438,412.978 764.5,414.5C 773.41,419.75 781.743,425.75 789.5,432.5C 797.964,441.954 805.631,451.954 812.5,462.5C 820.718,478.157 825.718,494.823 827.5,512.5C 827.657,513.873 827.49,515.207 827,516.5C 821.886,471.898 800.386,437.898 762.5,414.5C 761.133,412.022 761.133,410.355 762.5,409.5 Z"/></g>
<g><path style="opacity:0.004" fill="#66967a" d="M 522.5,476.5 C 523.833,477.167 523.833,477.167 522.5,476.5 Z"/></g>
<g><path style="opacity:0.008" fill="#628e75" d="M 199.5,480.5 C 200.833,481.167 200.833,481.167 199.5,480.5 Z"/></g>
<g><path style="opacity:0.004" fill="#66967a" d="M 522.5,496.5 C 523.833,497.167 523.833,497.167 522.5,496.5 Z"/></g>
<g><path style="opacity:0.004" fill="#67967a" d="M 522.5,500.5 C 523.833,501.167 523.833,501.167 522.5,500.5 Z"/></g>
<g><path style="opacity:0.004" fill="#68957a" d="M 522.5,508.5 C 523.833,509.167 523.833,509.167 522.5,508.5 Z"/></g>
<g><path style="opacity:0.004" fill="#608b71" d="M 192.5,516.5 C 193.833,517.167 193.833,517.167 192.5,516.5 Z"/></g>
<g><path style="opacity:0.004" fill="#68967a" d="M 522.5,532.5 C 523.833,533.167 523.833,533.167 522.5,532.5 Z"/></g>
<g><path style="opacity:0.998" fill="#558168" d="M 494.5,236.5 C 494.833,236.5 495.167,236.5 495.5,236.5C 495.167,330.001 495.501,423.335 496.5,516.5C 497.506,516.938 497.506,517.604 496.5,518.5C 495.167,586.5 495.167,654.5 496.5,722.5C 496.561,724.864 496.561,727.197 496.5,729.5C 495.806,737.262 495.139,745.595 494.5,754.5C 494.5,581.833 494.5,409.167 494.5,236.5 Z"/></g>
<g><path style="opacity:0.992" fill="#476953" d="M 196.5,533.5 C 197.129,538.682 197.129,543.682 196.5,548.5C 195.586,545.272 195.253,541.939 195.5,538.5C 195.216,536.585 195.549,534.919 196.5,533.5 Z"/></g>
<g><path style="opacity:0.004" fill="#68967a" d="M 522.5,540.5 C 523.833,541.167 523.833,541.167 522.5,540.5 Z"/></g>
<g><path style="opacity:0.004" fill="#68977a" d="M 522.5,548.5 C 523.833,549.167 523.833,549.167 522.5,548.5 Z"/></g>
<g><path style="opacity:0.006" fill="#648d74" d="M 827.5,549.5 C 828.525,549.897 828.692,550.563 828,551.5C 827.536,550.906 827.369,550.239 827.5,549.5 Z"/></g>
<g><path style="opacity:0.004" fill="#608972" d="M 195.5,553.5 C 196.833,554.167 196.833,554.167 195.5,553.5 Z"/></g>
<g><path style="opacity:0.004" fill="#628a70" d="M 195.5,555.5 C 196.833,556.167 196.833,556.167 195.5,555.5 Z"/></g>
<g><path style="opacity:0.006" fill="#61886e" d="M 196.5,557.5 C 197.525,557.897 197.692,558.563 197,559.5C 196.536,558.906 196.369,558.239 196.5,557.5 Z"/></g>
<g><path style="opacity:0.004" fill="#69967a" d="M 522.5,564.5 C 523.833,565.167 523.833,565.167 522.5,564.5 Z"/></g>
<g><path style="opacity:0.986" fill="#64977a" d="M 494.5,232.5 C 494.5,233.833 494.5,235.167 494.5,236.5C 494.5,409.167 494.5,581.833 494.5,754.5C 494.632,757.57 494.299,760.57 493.5,763.5C 492.861,762.903 492.528,762.07 492.5,761C 493.164,584.683 493.83,408.516 494.5,232.5 Z"/></g>
<g><path style="opacity:0.006" fill="#628b71" d="M 202.5,571.5 C 202.649,572.552 202.483,573.552 202,574.5C 201.26,573.251 201.427,572.251 202.5,571.5 Z"/></g>
<g><path style="opacity:0.004" fill="#679679" d="M 522.5,572.5 C 523.833,573.167 523.833,573.167 522.5,572.5 Z"/></g>
<g><path style="opacity:0.004" fill="#5f866e" d="M 199.5,576.5 C 200.833,577.167 200.833,577.167 199.5,576.5 Z"/></g>
<g><path style="opacity:0.004" fill="#689679" d="M 522.5,584.5 C 523.833,585.167 523.833,585.167 522.5,584.5 Z"/></g>
<g><path style="opacity:0.004" fill="#638d75" d="M 209.5,589.5 C 210.833,590.167 210.833,590.167 209.5,589.5 Z"/></g>
<g><path style="opacity:0.004" fill="#648e76" d="M 806.5,598.5 C 807.833,599.167 807.833,599.167 806.5,598.5 Z"/></g>
<g><path style="opacity:0.004" fill="#638d73" d="M 215.5,599.5 C 216.833,600.167 216.833,600.167 215.5,599.5 Z"/></g>
<g><path style="opacity:0.863" fill="#4e745c" d="M 828.5,519.5 C 829.403,548.232 822.07,574.565 806.5,598.5C 804.738,599.262 803.738,600.596 803.5,602.5C 798.366,607.805 793.366,613.305 788.5,619C 785.953,621.054 783.286,622.887 780.5,624.5C 780.062,624.565 779.728,624.399 779.5,624C 811.858,596.78 828.191,561.947 828.5,519.5 Z"/></g>
<g><path style="opacity:0.004" fill="#638e73" d="M 217.5,602.5 C 218.833,603.167 218.833,603.167 217.5,602.5 Z"/></g>
<g><path style="opacity:0.004" fill="#628c72" d="M 803.5,602.5 C 804.833,603.167 804.833,603.167 803.5,602.5 Z"/></g>
<g><path style="opacity:0.004" fill="#638d71" d="M 220.5,604.5 C 219.833,605.167 219.833,605.167 220.5,604.5 Z"/></g>
<g><path style="opacity:0.004" fill="#699579" d="M 522.5,604.5 C 523.833,605.167 523.833,605.167 522.5,604.5 Z"/></g>
<g><path style="opacity:0.745" fill="#4e735c" d="M 246.5,628.5 C 244.772,626.774 242.772,625.441 240.5,624.5C 236.859,621.195 233.192,617.862 229.5,614.5C 226.959,610.748 223.959,607.415 220.5,604.5C 213.622,593.961 207.622,582.961 202.5,571.5C 200.221,565.329 198.554,558.996 197.5,552.5C 197.351,551.448 197.517,550.448 198,549.5C 204.793,581.948 221.293,608.115 247.5,628C 247.272,628.399 246.938,628.565 246.5,628.5 Z"/></g>
<g><path style="opacity:0.004" fill="#658f74" d="M 224.5,612.5 C 225.833,613.167 225.833,613.167 224.5,612.5 Z"/></g>
<g><path style="opacity:0.004" fill="#68957a" d="M 523.5,612.5 C 522.833,613.167 522.833,613.167 523.5,612.5 Z"/></g>
<g><path style="opacity:0.012" fill="#628a71" d="M 229.5,614.5 C 228.833,615.167 228.833,615.167 229.5,614.5 Z"/></g>
<g><path style="opacity:0.004" fill="#68947a" d="M 522.5,620.5 C 523.525,620.897 523.692,621.563 523,622.5C 522.536,621.906 522.369,621.239 522.5,620.5 Z"/></g>
<g><path style="opacity:0.008" fill="#658f75" d="M 240.5,624.5 C 239.833,625.167 239.833,625.167 240.5,624.5 Z"/></g>
<g><path style="opacity:0.004" fill="#68967a" d="M 522.5,624.5 C 523.833,625.167 523.833,625.167 522.5,624.5 Z"/></g>
<g><path style="opacity:0.004" fill="#659274" d="M 242.5,627.5 C 241.833,626.167 241.833,626.167 242.5,627.5 Z"/></g>
<g><path style="opacity:0.004" fill="#659176" d="M 242.5,627.5 C 243.833,628.167 243.833,628.167 242.5,627.5 Z"/></g>
<g><path style="opacity:0.004" fill="#69967a" d="M 522.5,628.5 C 523.833,629.167 523.833,629.167 522.5,628.5 Z"/></g>
<g><path style="opacity:0.004" fill="#689779" d="M 522.5,636.5 C 523.833,637.167 523.833,637.167 522.5,636.5 Z"/></g>
<g><path style="opacity:0.427" fill="#50775e" d="M 775.5,629.5 C 777.247,636.411 778.58,643.411 779.5,650.5C 779.649,651.552 779.483,652.552 779,653.5C 778.052,645.94 776.219,638.607 773.5,631.5C 773.556,630.263 774.056,629.263 775,628.5C 775.399,628.728 775.565,629.062 775.5,629.5 Z"/></g>
<g><path style="opacity:0.004" fill="#638f73" d="M 779.5,639.5 C 780.833,640.167 780.833,640.167 779.5,639.5 Z"/></g>
<g><path style="opacity:0.004" fill="#67967a" d="M 523.5,652.5 C 522.833,653.167 522.833,653.167 523.5,652.5 Z"/></g>
<g><path style="opacity:0.004" fill="#628f75" d="M 239.5,660.5 C 240.833,661.167 240.833,661.167 239.5,660.5 Z"/></g>
<g><path style="opacity:0.004" fill="#639074" d="M 239.5,662.5 C 240.833,663.167 240.833,663.167 239.5,662.5 Z"/></g>
<g><path style="opacity:0.922" fill="#446c55" d="M 496.5,518.5 C 496.935,586.728 496.935,654.728 496.5,722.5C 495.167,654.5 495.167,586.5 496.5,518.5 Z"/></g>
<g><path style="opacity:0.004" fill="#638e75" d="M 239.5,668.5 C 240.525,668.897 240.692,669.563 240,670.5C 239.536,669.906 239.369,669.239 239.5,668.5 Z"/></g>
<g><path style="opacity:0.004" fill="#618b72" d="M 241.5,687.5 C 242.525,687.897 242.692,688.563 242,689.5C 241.536,688.906 241.369,688.239 241.5,687.5 Z"/></g>
<g><path style="opacity:0.008" fill="#618b71" d="M 242.5,691.5 C 241.833,690.167 241.833,690.167 242.5,691.5 Z"/></g>
<g><path style="opacity:0.004" fill="#608970" d="M 242.5,691.5 C 243.833,692.167 243.833,692.167 242.5,691.5 Z"/></g>
<g><path style="opacity:0.012" fill="#608a6f" d="M 244.5,694.5 C 243.833,695.167 243.833,695.167 244.5,694.5 Z"/></g>
<g><path style="opacity:0.004" fill="#689478" d="M 522.5,696.5 C 523.833,697.167 523.833,697.167 522.5,696.5 Z"/></g>
<g><path style="opacity:0.004" fill="#679379" d="M 522.5,699.5 C 523.525,699.897 523.692,700.563 523,701.5C 522.536,700.906 522.369,700.239 522.5,699.5 Z"/></g>
<g><path style="opacity:0.004" fill="#679478" d="M 522.5,704.5 C 523.833,705.167 523.833,705.167 522.5,704.5 Z"/></g>
<g><path style="opacity:0.041" fill="#68967a" d="M 525.5,238.5 C 525.5,408.5 525.5,578.5 525.5,748.5C 524.699,716.353 524.033,684.353 523.5,652.5C 524.821,639.069 524.821,625.735 523.5,612.5C 524.165,487.736 524.832,363.069 525.5,238.5 Z"/></g>
<g><path style="opacity:0.004" fill="#608870" d="M 773.5,710.5 C 774.833,711.167 774.833,711.167 773.5,710.5 Z"/></g>
<g><path style="opacity:0.008" fill="#5f896f" d="M 247.5,712.5 C 247.897,711.475 248.563,711.308 249.5,712C 248.906,712.464 248.239,712.631 247.5,712.5 Z"/></g>
<g><path style="opacity:0.005" fill="#5f876e" d="M 251.5,714.5 C 251.489,717.001 250.822,717.168 249.5,715C 250.094,714.536 250.761,714.369 251.5,714.5 Z"/></g>
<g><path style="opacity:0.004" fill="#67947a" d="M 522.5,716.5 C 523.833,717.167 523.833,717.167 522.5,716.5 Z"/></g>
<g><path style="opacity:0.008" fill="#5e8a6f" d="M 251.5,717.5 C 252.833,718.167 252.833,718.167 251.5,717.5 Z"/></g>
<g><path style="opacity:0.812" fill="#4e735b" d="M 780.5,655.5 C 783.013,685.285 775.347,712.118 757.5,736C 757.833,736.333 758.167,736.667 758.5,737C 751.379,744.103 744.379,751.27 737.5,758.5C 723.775,769.861 708.108,777.194 690.5,780.5C 689.761,780.631 689.094,780.464 688.5,780C 694.589,778.645 700.589,776.978 706.5,775C 756.206,750.769 780.873,710.936 780.5,655.5 Z"/></g>
<g><path style="opacity:0.004" fill="#68957a" d="M 522.5,732.5 C 523.833,733.167 523.833,733.167 522.5,732.5 Z"/></g>
<g><path style="opacity:0.004" fill="#69967a" d="M 522.5,736.5 C 523.833,737.167 523.833,737.167 522.5,736.5 Z"/></g>
<g><path style="opacity:0.008" fill="#69957b" d="M 522.5,740.5 C 523.833,741.167 523.833,741.167 522.5,740.5 Z"/></g>
<g><path style="opacity:0.016" fill="#5d886e" d="M 269.5,742.5 C 268.833,743.167 268.833,743.167 269.5,742.5 Z"/></g>
<g><path style="opacity:0.004" fill="#699679" d="M 522.5,744.5 C 523.833,745.167 523.833,745.167 522.5,744.5 Z"/></g>
<g><path style="opacity:0.004" fill="#699679" d="M 523.5,749.5 C 524.833,750.167 524.833,750.167 523.5,749.5 Z"/></g>
<g><path style="opacity:0.004" fill="#669378" d="M 523.5,752.5 C 524.833,753.167 524.833,753.167 523.5,752.5 Z"/></g>
<g><path style="opacity:0.004" fill="#628b72" d="M 737.5,758.5 C 738.833,759.167 738.833,759.167 737.5,758.5 Z"/></g>
<g><path style="opacity:0.004" fill="#60896f" d="M 727.5,766.5 C 728.833,767.167 728.833,767.167 727.5,766.5 Z"/></g>
<g><path style="opacity:1" fill="#4e745c" d="M 336.5,782.5 C 327.373,780.301 318.373,777.634 309.5,774.5C 294.122,766.463 280.789,755.796 269.5,742.5C 262.489,733.81 256.489,724.476 251.5,714.5C 249.14,707.748 246.806,701.081 244.5,694.5C 239.773,672.882 240.773,651.549 247.5,630.5C 248.296,630.277 248.63,631.11 248.5,633C 239.134,665.851 242.967,697.018 260,726.5C 277.641,755.443 303.141,773.61 336.5,781C 337.738,781.69 337.738,782.19 336.5,782.5 Z"/></g>
<g><path style="opacity:0.004" fill="#638c73" d="M 309.5,774.5 C 308.833,775.167 308.833,775.167 309.5,774.5 Z"/></g>
<g><path style="opacity:0.004" fill="#669076" d="M 494.5,778.5 C 495.833,779.167 495.833,779.167 494.5,778.5 Z"/></g>
<g><path style="opacity:0.006" fill="#659077" d="M 531.5,781.5 C 530.475,781.103 530.308,780.437 531,779.5C 531.464,780.094 531.631,780.761 531.5,781.5 Z"/></g>
<g><path style="opacity:0.973" fill="#50775e" d="M 496.5,729.5 C 499.972,753.309 494.639,775.643 480.5,796.5C 459.848,822.648 432.848,833.648 399.5,829.5C 408.658,828.67 417.991,828.17 427.5,828C 462.196,819.47 484.196,797.97 493.5,763.5C 494.299,760.57 494.632,757.57 494.5,754.5C 495.139,745.595 495.806,737.262 496.5,729.5 Z"/></g>
<g><path style="opacity:0.004" fill="#648e73" d="M 696.5,780.5 C 697.833,781.167 697.833,781.167 696.5,780.5 Z"/></g>
<g><path style="opacity:0.004" fill="#659177" d="M 327.5,781.5 C 328.833,782.167 328.833,782.167 327.5,781.5 Z"/></g>
<g><path style="opacity:0.004" fill="#659077" d="M 531.5,781.5 C 532.167,781.5 532.5,781.833 532.5,782.5C 532.167,782.167 531.833,781.833 531.5,781.5 Z"/></g>
<g><path style="opacity:0.008" fill="#628e73" d="M 338.5,786.5 C 337.833,787.167 337.833,787.167 338.5,786.5 Z"/></g>
<g><path style="opacity:0.008" fill="#628d73" d="M 341.5,790.5 C 340.833,791.167 340.833,791.167 341.5,790.5 Z"/></g>
<g><path style="opacity:0.004" fill="#638f75" d="M 537.5,792.5 C 538.833,793.167 538.833,793.167 537.5,792.5 Z"/></g>
<g><path style="opacity:0.871" fill="#4c7159" d="M 683.5,784.5 C 681.597,789.307 678.93,793.64 675.5,797.5C 674.475,797.103 674.308,796.437 675,795.5C 677.583,792.003 679.916,788.336 682,784.5C 682.69,783.262 683.19,783.262 683.5,784.5 Z"/></g>
<g><path style="opacity:0.008" fill="#659174" d="M 540.5,795.5 C 539.833,796.167 539.833,796.167 540.5,795.5 Z"/></g>
<g><path style="opacity:0.004" fill="#638f72" d="M 480.5,796.5 C 481.833,797.167 481.833,797.167 480.5,796.5 Z"/></g>
<g><path style="opacity:0.004" fill="#638e72" d="M 541.5,798.5 C 540.833,797.167 540.833,797.167 541.5,798.5 Z"/></g>
<g><path style="opacity:0.988" fill="#4e725a" d="M 396.5,828.5 C 372.805,823.494 354.472,810.827 341.5,790.5C 340.974,788.77 339.974,787.436 338.5,786.5C 338.5,785.833 338.5,785.167 338.5,784.5C 338.81,783.262 339.31,783.262 340,784.5C 343.611,790.444 347.611,796.111 352,801.5C 365.567,814.932 380.401,823.932 396.5,828.5 Z"/></g>
<g><path style="opacity:0.004" fill="#638e73" d="M 541.5,798.5 C 542.833,799.167 542.833,799.167 541.5,798.5 Z"/></g>
<g><path style="opacity:1" fill="#486c55" d="M 525.5,234.5 C 526.451,235.919 526.784,237.585 526.5,239.5C 526.333,410.834 526.5,582.167 527,753.5C 528.601,766.303 532.601,778.303 539,789.5C 552.778,809.586 570.278,822.586 591.5,828.5C 576.432,825.799 563.432,819.133 552.5,808.5C 548.45,804.12 544.45,799.787 540.5,795.5C 538.582,790.657 535.916,786.323 532.5,782.5C 533.043,782.44 533.376,782.107 533.5,781.5C 532.667,779.833 531.833,778.167 531,776.5C 529.869,777.604 529.035,777.271 528.5,775.5C 529.167,775.167 529.833,774.833 530.5,774.5C 527.035,766.176 525.369,757.51 525.5,748.5C 525.5,578.5 525.5,408.5 525.5,238.5C 525.5,237.167 525.5,235.833 525.5,234.5 Z"/></g>
<g><path style="opacity:0.012" fill="#648e73" d="M 552.5,810.5 C 553.833,811.167 553.833,811.167 552.5,810.5 Z"/></g>
<g><path style="opacity:0.663" fill="#4c7058" d="M 673.5,799.5 C 660.183,816.168 642.85,826.168 621.5,829.5C 619.801,829.66 618.134,829.494 616.5,829C 632.968,827.291 647.635,821.291 660.5,811C 664.697,806.258 669.03,802.425 673.5,799.5 Z"/></g>
<g><path style="opacity:0.004" fill="#628b6f" d="M 367.5,818.5 C 368.833,819.167 368.833,819.167 367.5,818.5 Z"/></g>
<g><path style="opacity:0.004" fill="#628c71" d="M 457.5,818.5 C 458.833,819.167 458.833,819.167 457.5,818.5 Z"/></g>
<g><path style="opacity:0.006" fill="#60876d" d="M 368.5,821.5 C 368.897,820.475 369.563,820.308 370.5,821C 369.906,821.464 369.239,821.631 368.5,821.5 Z"/></g>
<g><path style="opacity:0.008" fill="#60886f" d="M 371.5,820.5 C 372.833,821.167 372.833,821.167 371.5,820.5 Z"/></g>
<g><path style="opacity:0.004" fill="#5f886c" d="M 565.5,822.5 C 566.833,823.167 566.833,823.167 565.5,822.5 Z"/></g>
<g><path style="opacity:0.008" fill="#628c70" d="M 585.5,828.5 C 586.833,829.167 586.833,829.167 585.5,828.5 Z"/></g>
<g><path style="opacity:0.004" fill="#5f866d" d="M 632.5,828.5 C 633.833,829.167 633.833,829.167 632.5,828.5 Z"/></g>
<g><path style="opacity:0.004" fill="#628a6f" d="M 392.5,829.5 C 393.833,830.167 393.833,830.167 392.5,829.5 Z"/></g>
<g><path style="opacity:0.004" fill="#5e8970" d="M 396.5,829.5 C 395.833,830.167 395.833,830.167 396.5,829.5 Z"/></g>
<g><path style="opacity:0.675" fill="#4f755c" d="M 594.5,829.5 C 595.793,828.842 597.293,828.508 599,828.5C 604.678,828.926 610.178,829.593 615.5,830.5C 608.443,830.76 601.443,830.427 594.5,829.5 Z"/></g>
<g><path style="opacity:0.004" fill="#192419" d="M 307.5,933.5 C 308.833,934.167 308.833,934.167 307.5,933.5 Z"/></g>
</svg>
